<?xml version="1.0" standalone="no"?><!DOCTYPE svg PUBLIC "-//W3C//DTD SVG 1.1//EN" "http://www.w3.org/Graphics/SVG/1.1/DTD/svg11.dtd"><svg t="1652854557138" class="icon" viewBox="0 0 1024 1024" version="1.1" xmlns="http://www.w3.org/2000/svg" p-id="18660" xmlns:xlink="http://www.w3.org/1999/xlink" width="200" height="200"><defs><style type="text/css">@font-face { font-family: feedback-iconfont; src: url("//at.alicdn.com/t/font_1031158_u69w8yhxdu.woff2?t=1630033759944") format("woff2"), url("//at.alicdn.com/t/font_1031158_u69w8yhxdu.woff?t=1630033759944") format("woff"), url("//at.alicdn.com/t/font_1031158_u69w8yhxdu.ttf?t=1630033759944") format("truetype"); }
</style></defs><path d="M27 365C27 205.39 156.39 76 316 76c73.943 0 143.359 27.975 196 76.604C564.641 103.974 634.057 76 708 76c159.61 0 289 129.39 289 289 0 10.805-0.595 21.545-1.775 32.184-0.895 9.663-2.484 19.388-4.758 29.167-11.687 54.03-38.67 103.273-77.363 142.25a591.873 591.873 0 0 1-3.233 3.843C858.576 632.9 734.52 754.406 536.465 938.376c-13.792 12.812-35.126 12.834-48.945 0.052C292.905 758.422 168.813 636.84 114.174 572.444a668.599 668.599 0 0 1-3.015-3.579c-28.985-29.122-51.523-64.114-65.94-102.682-11.4-26.877-17.273-52.856-17.29-77.872A292.45 292.45 0 0 1 27 365z" p-id="18661" fill="#e8e9ea"></path></svg>