<?xml version="1.0" standalone="no"?><!DOCTYPE svg PUBLIC "-//W3C//DTD SVG 1.1//EN" "http://www.w3.org/Graphics/SVG/1.1/DTD/svg11.dtd"><svg t="1652854286164" class="icon" viewBox="0 0 1024 1024" version="1.1" xmlns="http://www.w3.org/2000/svg" p-id="14695" xmlns:xlink="http://www.w3.org/1999/xlink" width="200" height="200"><defs><style type="text/css">@font-face { font-family: feedback-iconfont; src: url("//at.alicdn.com/t/font_1031158_u69w8yhxdu.woff2?t=1630033759944") format("woff2"), url("//at.alicdn.com/t/font_1031158_u69w8yhxdu.woff?t=1630033759944") format("woff"), url("//at.alicdn.com/t/font_1031158_u69w8yhxdu.ttf?t=1630033759944") format("truetype"); }
</style></defs><path d="M823.53152 808.3456a475.78112 475.78112 0 0 1-77.5168 62.84288 478.91968 478.91968 0 0 1-42.65984 24.7296l53.53984 82.29888c21.87776 33.62816 67.47648 42.75712 101.84704 20.39808 34.37056-22.35904 44.49792-67.74784 22.62528-101.376l-57.83552-88.89344z" fill="#8D3F07" p-id="14696"></path><path d="M512.80384 486.69184m-463.69792 0a463.69792 463.69792 0 1 0 927.39584 0 463.69792 463.69792 0 1 0-927.39584 0Z" fill="#F9949E" p-id="14697"></path><path d="M512.80384 486.69184m-352.1536 0a352.1536 352.1536 0 1 0 704.3072 0 352.1536 352.1536 0 1 0-704.3072 0Z" fill="#FFFFFF" p-id="14698"></path><path d="M512.80384 486.69184m-222.86848 0a222.86848 222.86848 0 1 0 445.73696 0 222.86848 222.86848 0 1 0-445.73696 0Z" fill="#F9949E" p-id="14699"></path><path d="M512.80384 486.69184m-96.77824 0a96.77824 96.77824 0 1 0 193.55648 0 96.77824 96.77824 0 1 0-193.55648 0Z" fill="#FFFFFF" p-id="14700"></path></svg>