<?xml version="1.0" standalone="no"?><!DOCTYPE svg PUBLIC "-//W3C//DTD SVG 1.1//EN" "http://www.w3.org/Graphics/SVG/1.1/DTD/svg11.dtd"><svg t="1652861406777" class="icon" viewBox="0 0 1024 1024" version="1.1" xmlns="http://www.w3.org/2000/svg" p-id="9112" xmlns:xlink="http://www.w3.org/1999/xlink" width="200" height="200"><defs><style type="text/css">@font-face { font-family: feedback-iconfont; src: url("//at.alicdn.com/t/font_1031158_u69w8yhxdu.woff2?t=1630033759944") format("woff2"), url("//at.alicdn.com/t/font_1031158_u69w8yhxdu.woff?t=1630033759944") format("woff"), url("//at.alicdn.com/t/font_1031158_u69w8yhxdu.ttf?t=1630033759944") format("truetype"); }
</style></defs><path d="M512 512m-512 0a512 512 0 1 0 1024 0 512 512 0 1 0-1024 0Z" fill="#FBD971" p-id="9113"></path><path d="M780.190476 585.142857c0 148.114286-120.07619 268.190476-268.190476 268.190476s-268.190476-120.07619-268.190476-268.190476h536.380952z" fill="#802D40" p-id="9114"></path><path d="M414.47619 585.142857h97.52381v146.285714h-97.52381zM512 585.142857h97.52381v97.52381h-97.52381z" fill="#ECF0F1" p-id="9115"></path><path d="M305.859048 260.924952A69.168762 69.168762 0 0 1 369.273905 219.428571c38.204952 0 65.706667 31.548952 69.168762 69.168762 0 0 1.877333 9.337905-2.243048 26.136381-5.583238 22.893714-18.748952 43.227429-36.473905 58.733715l-93.866666 80.871619-92.281905-80.847238c-17.724952-15.506286-30.890667-35.864381-36.473905-58.733715-4.120381-16.798476-2.243048-26.136381-2.243048-26.136381C178.322286 250.977524 205.824 219.428571 244.028952 219.428571c28.355048 0 51.151238 17.066667 61.830096 41.496381zM716.55619 260.924952A69.193143 69.193143 0 0 1 779.971048 219.428571c38.204952 0 65.706667 31.548952 69.168762 69.168762 0 0 1.877333 9.337905-2.243048 26.136381-5.583238 22.893714-18.748952 43.227429-36.473905 58.733715l-93.866667 80.871619-92.281904-80.871619c-17.724952-15.506286-30.890667-35.864381-36.473905-58.733715-4.120381-16.798476-2.243048-26.136381-2.243048-26.136381C589.019429 250.977524 616.545524 219.428571 654.726095 219.428571c28.379429 0 51.151238 17.066667 61.830095 41.496381z" fill="#E64C3C" p-id="9116"></path></svg>