<?xml version="1.0" standalone="no"?><!DOCTYPE svg PUBLIC "-//W3C//DTD SVG 1.1//EN" "http://www.w3.org/Graphics/SVG/1.1/DTD/svg11.dtd"><svg t="1652854226720" class="icon" viewBox="0 0 1024 1024" version="1.1" xmlns="http://www.w3.org/2000/svg" p-id="8136" xmlns:xlink="http://www.w3.org/1999/xlink" width="200" height="200"><defs><style type="text/css">@font-face { font-family: feedback-iconfont; src: url("//at.alicdn.com/t/font_1031158_u69w8yhxdu.woff2?t=1630033759944") format("woff2"), url("//at.alicdn.com/t/font_1031158_u69w8yhxdu.woff?t=1630033759944") format("woff"), url("//at.alicdn.com/t/font_1031158_u69w8yhxdu.ttf?t=1630033759944") format("truetype"); }
</style></defs><path d="M511.4 511.9m-426.3 0a426.3 426.3 0 1 0 852.6 0 426.3 426.3 0 1 0-852.6 0Z" fill="#FF7A4E" p-id="8137"></path><path d="M511.4 958.2c-60.2 0-118.7-11.8-173.7-35.1-53.1-22.5-100.9-54.7-141.9-95.6-41-41-73.2-88.7-95.6-141.9-23.3-55-35.1-113.5-35.1-173.7s11.8-118.7 35.1-173.7c22.5-53.1 54.7-100.9 95.6-141.9 41-41 88.7-73.2 141.9-95.6 55-23.3 113.5-35.1 173.7-35.1 60.2 0 118.7 11.8 173.7 35.1 53.1 22.5 100.9 54.7 141.9 95.6 41 41 73.2 88.7 95.6 141.9 23.3 55 35.1 113.5 35.1 173.7s-11.7 118.7-35 173.7C900.2 738.8 868 786.5 827 827.5s-88.7 73.2-141.9 95.6c-55 23.3-113.4 35.1-173.7 35.1z m0-852.6c-224 0-406.3 182.3-406.3 406.3s182.3 406.3 406.3 406.3 406.3-182.3 406.3-406.3c0.1-224-182.2-406.3-406.3-406.3z" fill="#FF7A4E" p-id="8138"></path><path d="M716.2 547.3l-196 204.1L340.8 579l0.6-0.7-27.2-25.4c-50.3-46.9-53-125.6-6.2-175.9 46.9-50.3 125.6-53 175.9-6.2l29.9 27.9 22.9-23.9c19.5-20.3 44.2-32.6 70.1-36.7 37.2-5.9 76.6 5 105.9 33.1 49.5 47.7 51.1 126.5 3.5 176.1z" fill="#FFFFFF" p-id="8139"></path></svg>