<?xml version="1.0" standalone="no"?><!DOCTYPE svg PUBLIC "-//W3C//DTD SVG 1.1//EN" "http://www.w3.org/Graphics/SVG/1.1/DTD/svg11.dtd"><svg t="1652854210452" class="icon" viewBox="0 0 1024 1024" version="1.1" xmlns="http://www.w3.org/2000/svg" p-id="7188" xmlns:xlink="http://www.w3.org/1999/xlink" width="200" height="200"><defs><style type="text/css">@font-face { font-family: feedback-iconfont; src: url("//at.alicdn.com/t/font_1031158_u69w8yhxdu.woff2?t=1630033759944") format("woff2"), url("//at.alicdn.com/t/font_1031158_u69w8yhxdu.woff?t=1630033759944") format("woff"), url("//at.alicdn.com/t/font_1031158_u69w8yhxdu.ttf?t=1630033759944") format("truetype"); }
</style></defs><path d="M512 512m-512 0a512 512 0 1 0 1024 0 512 512 0 1 0-1024 0Z" fill="#F489B5" p-id="7189"></path><path d="M544 341.76c-88.32-133.12-266.24-55.04-266.24 90.88 0 99.84 88.32 168.96 156.16 222.72 48.64 39.68 71.68 56.32 89.6 71.68 11.52 10.24 28.16 10.24 39.68 0 17.92-15.36 42.24-33.28 90.88-71.68 67.84-51.2 156.16-124.16 156.16-222.72 2.56-145.92-176.64-225.28-266.24-90.88z" fill="#FFFFFF" opacity=".5" p-id="7190"></path><path d="M454.4 398.08c-80.64-120.32-240.64-49.92-240.64 81.92 0 89.6 80.64 152.32 140.8 200.96 43.52 35.84 65.28 51.2 80.64 64 10.24 8.96 25.6 8.96 35.84 0 16.64-12.8 37.12-29.44 81.92-64 61.44-46.08 140.8-111.36 140.8-200.96 2.56-131.84-158.72-203.52-239.36-81.92z" fill="#FFFFFF" p-id="7191"></path></svg>